<?xml version="1.0" encoding="UTF-8"?>
<svg width="700pt" height="700pt" version="1.1" viewBox="0 0 700 700" xmlns="http://www.w3.org/2000/svg">
 <g fill-rule="evenodd">
  <path d="m249.49 283.5c12.398-52.738 57.203-92.922 112.25-92.922 45.449 0 84.055 27.551 103.02 66.762 7.7891-2.4453 16.047-3.7617 24.598-3.7617 48.707 0 86.219 41.871 86.219 91 0 49.133-37.512 91-86.219 91h-274.88c-43.285 0-76.402-37.168-76.402-80.5s33.117-80.5 76.402-80.5c12.703 0 24.582 3.25 35.004 8.9219zm112.25-57.922c-43.465 0-80.672 38.047-80.672 87.5 0 2.1562 0.074219 4.293 0.21094 6.4102 0.53516 8.0352-4.4844 15.398-12.16 17.84-7.6797 2.4375-16.027-0.67578-20.23-7.5508-7.668-12.543-20.457-20.199-34.406-20.199-21.773 0-41.402 19.246-41.402 45.5 0 26.258 19.629 45.5 41.402 45.5h274.88c27.199 0 51.219-23.945 51.219-56 0-32.055-24.02-56-51.219-56-9.0625 0-17.582 2.5625-25.016 7.1328-4.625 2.8398-10.309 3.375-15.383 1.4453-5.0742-1.9297-8.9648-6.1055-10.535-11.301-10.762-35.676-41.586-60.277-76.688-60.277z"/>
  <path d="m299.42 157.23c8.0547 5.3398 10.258 16.199 4.918 24.254l-9.3594 14.121c7.8242 8.0195 14.086 17.699 18.176 28.629 3.3867 9.0508-1.207 19.137-10.262 22.523-9.0508 3.3867-19.133-1.207-22.52-10.262-3.5703-9.5469-10.031-17.434-18.141-22.848-0.046875-0.03125-0.09375-0.0625-0.14453-0.097656-0.046875-0.027344-0.09375-0.058594-0.13672-0.089844-10.145-6.668-22.824-9.4883-35.652-6.8867-25.789 5.2266-42.453 30.371-37.223 56.16 1.6719 8.2539 5.3633 15.527 10.441 21.469 6.2852 7.3438 5.4258 18.391-1.918 24.672-7.3438 6.2852-18.391 5.4258-24.676-1.918-5.1953-6.0781-9.5547-12.957-12.852-20.484l-16.594 3.3633c-9.4727 1.9219-18.707-4.1992-20.629-13.672-1.918-9.4727 4.2031-18.707 13.672-20.629l16.594-3.3633c0.12109-10.074 2.0977-19.859 5.6523-28.949l-14.117-9.3555c-8.0547-5.3398-10.258-16.199-4.918-24.254 5.3398-8.0547 16.199-10.258 24.254-4.918l14.117 9.3555c6.9844-6.8164 15.227-12.441 24.457-16.48l-3.3633-16.594c-1.9219-9.4727 4.1992-18.707 13.672-20.629 9.4727-1.918 18.707 4.2031 20.629 13.672l3.3633 16.594c10.078 0.12109 19.859 2.0938 28.949 5.6523l9.3555-14.117c5.3359-8.0547 16.199-10.258 24.254-4.918z"/>
 </g>
</svg>
