<?xml version="1.0" encoding="UTF-8"?>
<svg width="700pt" height="700pt" version="1.1" viewBox="0 0 700 700" xmlns="http://www.w3.org/2000/svg">
 <path d="m251.41 250.42c12.398-52.738 57.199-92.922 112.25-92.922 45.449 0 84.055 27.551 103.02 66.758 7.7891-2.4414 16.051-3.7578 24.602-3.7578 48.707 0 86.219 41.867 86.219 91s-37.512 91-86.219 91h-274.88c-43.285 0-76.402-37.168-76.402-80.5s33.117-80.5 76.402-80.5c12.699 0 24.582 3.25 35.004 8.9219zm112.25-57.922c-43.465 0-80.672 38.047-80.672 87.5 0 2.1562 0.070313 4.293 0.21094 6.4062 0.53516 8.0391-4.4844 15.402-12.16 17.844-7.6797 2.4375-16.027-0.67969-20.23-7.5508-7.668-12.543-20.457-20.199-34.406-20.199-21.777 0-41.402 19.242-41.402 45.5s19.625 45.5 41.402 45.5h274.88c27.195 0 51.219-23.945 51.219-56s-24.023-56-51.219-56c-9.0625 0-17.582 2.5625-25.02 7.1328-4.625 2.8398-10.305 3.375-15.379 1.4453-5.0742-1.9297-8.9648-6.1055-10.535-11.305-10.762-35.672-41.586-60.273-76.688-60.273z" fill-rule="evenodd"/>
</svg>
