<?xml version="1.0" encoding="UTF-8"?>
<svg width="700pt" height="700pt" version="1.1" viewBox="0 0 700 700" xmlns="http://www.w3.org/2000/svg">
 <g fill-rule="evenodd">
  <path d="m251.41 197.92c12.398-52.738 57.199-92.922 112.25-92.922 45.449 0 84.055 27.551 103.02 66.762 7.7891-2.4453 16.051-3.7617 24.602-3.7617 48.707 0 86.219 41.867 86.219 91 0 39.871-24.465 74.59-59.664 86.598-9.1445 3.125-19.09-1.7617-22.215-10.91-3.1172-9.1484 1.7656-19.094 10.914-22.211 20.262-6.9141 35.965-27.754 35.965-53.477 0-32.055-24.023-56-51.219-56-9.0625 0-17.582 2.5625-25.02 7.1328-4.625 2.8398-10.305 3.375-15.379 1.4453-5.0742-1.9297-8.9648-6.1055-10.535-11.305-10.762-35.672-41.586-60.273-76.688-60.273-43.465 0-80.672 38.047-80.672 87.5 0 2.1562 0.070313 4.293 0.21094 6.4062 0.53516 8.0391-4.4844 15.402-12.16 17.844-7.6797 2.4375-16.027-0.67969-20.23-7.5508-7.668-12.543-20.457-20.199-34.406-20.199-21.777 0-41.402 19.242-41.402 45.5s19.625 45.5 41.402 45.5h63.598c9.6641 0 17.5 7.8359 17.5 17.5s-7.8359 17.5-17.5 17.5h-63.598c-43.285 0-76.402-37.168-76.402-80.5s33.117-80.5 76.402-80.5c12.699 0 24.582 3.25 35.004 8.9219z"/>
  <path d="m365.25 290c8.9727 3.5898 13.34 13.777 9.75 22.75l-6.5625 16.406c-3.5898 8.9727-13.777 13.34-22.75 9.75s-13.34-13.777-9.75-22.75l6.5625-16.406c3.5898-8.9727 13.777-13.34 22.75-9.75zm52.5 0c8.9727 3.5898 13.34 13.777 9.75 22.75l-6.5625 16.406c-3.5898 8.9727-13.777 13.34-22.75 9.75s-13.34-13.777-9.75-22.75l6.5625-16.406c3.5898-8.9727 13.777-13.34 22.75-9.75zm52.5 0c8.9727 3.5898 13.34 13.777 9.75 22.75l-6.5625 16.406c-3.5898 8.9727-13.777 13.34-22.75 9.75s-13.34-13.777-9.75-22.75l6.5625-16.406c3.5898-8.9727 13.777-13.34 22.75-9.75zm-127.97 57.426c8.9727 3.5859 13.34 13.773 9.75 22.746l-6.5625 16.406c-3.5898 8.9727-13.777 13.336-22.75 9.7461-8.9727-3.5859-13.34-13.773-9.75-22.746l6.5625-16.406c3.5898-8.9727 13.777-13.336 22.75-9.7461zm52.5 0c8.9727 3.5859 13.34 13.773 9.75 22.746l-6.5625 16.406c-3.5898 8.9727-13.777 13.336-22.75 9.7461-8.9727-3.5859-13.34-13.773-9.75-22.746l6.5625-16.406c3.5898-8.9727 13.777-13.336 22.75-9.7461zm52.5 0c8.9727 3.5859 13.34 13.773 9.75 22.746l-7.3828 18.457c-3.5898 8.9727-13.777 13.336-22.75 9.75-8.9727-3.5898-13.34-13.777-9.75-22.75l7.3828-18.457c3.5898-8.9727 13.777-13.336 22.75-9.7461zm-127.97 57.418c8.9727 3.5898 13.34 13.777 9.75 22.75l-6.5625 16.406c-3.5898 8.9727-13.777 13.34-22.75 9.75s-13.34-13.777-9.75-22.75l6.5625-16.406c3.5898-8.9727 13.777-13.34 22.75-9.75zm52.5 0c8.9727 3.5898 13.34 13.777 9.75 22.75l-6.5625 16.406c-3.5898 8.9727-13.777 13.34-22.75 9.75s-13.34-13.777-9.75-22.75l6.5625-16.406c3.5898-8.9727 13.777-13.34 22.75-9.75zm52.5 0c8.9727 3.5898 13.34 13.777 9.75 22.75l-6.5625 16.406c-3.5898 8.9727-13.777 13.34-22.75 9.75s-13.34-13.777-9.75-22.75l6.5625-16.406c3.5898-8.9727 13.777-13.34 22.75-9.75z"/>
 </g>
</svg>
