<?xml version="1.0" encoding="UTF-8"?>
<svg width="700pt" height="700pt" version="1.1" viewBox="0 0 700 700" xmlns="http://www.w3.org/2000/svg">
 <path d="m385.55 88.215c7.4414 2.1953 12.551 9.0273 12.551 16.785v123.19h39.395c6.4102 0 12.312 3.5078 15.375 9.1406 3.0625 5.6367 2.7969 12.492-0.6875 17.875l-135.61 209.31c-4.418 6.8203-12.949 9.7031-20.598 6.957s-12.402-10.398-11.473-18.473l13.879-120.66h-53.391c-6.4102 0-12.305-3.5039-15.371-9.1328-3.0625-5.6289-2.8047-12.484 0.67188-17.867l135.61-209.84c4.2109-6.5156 12.207-9.4844 19.648-7.2891zm-108.41 209.13h40.871c4.9922 0 9.7422 2.1289 13.062 5.8516 3.3242 3.7266 4.8945 8.6914 4.3242 13.648l-7.5859 65.965 77.492-119.62h-24.703c-9.668 0-17.5-7.8359-17.5-17.5v-81.363z" fill-rule="evenodd"/>
</svg>
