<?xml version="1.0" encoding="UTF-8"?>
<svg width="700pt" height="700pt" version="1.1" viewBox="0 0 700 700" xmlns="http://www.w3.org/2000/svg">
 <path d="m369.21 146.04c10.598-3.9141 21.961-6.043 33.762-6.043 40.988 0 75.441 25.277 92.715 60.855 6.5938-1.9414 13.547-2.9883 20.73-2.9883 45.004 0 78.582 39.75 78.582 85.012 0 42.371-29.223 79.641-69.867 84.496-9.5977 1.1484-18.305-5.7031-19.453-15.301-1.1484-9.5977 5.7031-18.305 15.301-19.449 20.578-2.4609 39.02-22.5 39.02-49.746 0-29.309-21.117-50.012-43.582-50.012-7.5586 0-14.703 2.2031-21 6.2031-4.6445 2.9492-10.406 3.543-15.555 1.6016-5.1484-1.9414-9.082-6.1875-10.625-11.469-9.4922-32.508-36.398-54.203-66.266-54.203-7.5586 0-14.82 1.3594-21.625 3.875-9.0703 3.3477-19.133-1.2852-22.484-10.348-3.3516-9.0664 1.2812-19.133 10.348-22.484zm-165.64 112.97c11.766-47.441 51.008-84.016 100.19-84.016 40.664 0 74.742 25.254 91.844 60.68 6.4805-1.9062 13.309-2.9297 20.367-2.9297 44.777 0 77.918 39.844 77.918 84.875s-33.141 84.875-77.918 84.875h-241.68c-40.012 0-69.289-35.531-69.289-75.25s29.277-75.25 69.289-75.25c10.578 0 20.473 2.5508 29.277 7.0156zm100.19-49.016c-36.258 0-68.812 33.418-68.812 78.75 0 1.9609 0.0625 3.9023 0.1875 5.8242 0.51563 8.0898-4.5938 15.477-12.344 17.852-7.75 2.3711-16.117-0.89062-20.219-7.8867-6.5586-11.184-17.184-17.539-28.281-17.539-17.191 0-34.289 16.18-34.289 40.25s17.098 40.25 34.289 40.25h241.68c21.961 0 42.918-20.488 42.918-49.875s-20.957-49.875-42.918-49.875c-7.4023 0-14.41 2.1758-20.609 6.1484-4.6523 2.9766-10.434 3.5859-15.602 1.6406-5.168-1.9414-9.1133-6.2109-10.648-11.512-9.4062-32.504-36.008-54.027-65.352-54.027z" fill-rule="evenodd"/>
</svg>
