<?xml version="1.0" encoding="UTF-8"?>
<svg width="700pt" height="700pt" version="1.1" viewBox="0 0 700 700" xmlns="http://www.w3.org/2000/svg">
 <path d="m348.89 490c-9.6641 0-17.5-7.8359-17.5-17.5v-41.586l-12.93 13.062c-6.7969 6.8711-17.879 6.9258-24.746 0.12891-6.8711-6.8008-6.9258-17.879-0.12891-24.75l37.805-38.195v-79.465l-70.094 40.828-13.836 52.168c-2.4766 9.3398-12.059 14.906-21.402 12.43-9.3398-2.4805-14.906-12.059-12.43-21.402l5.1289-19.34-36.047 20.078c-8.4453 4.7031-19.102 1.6719-23.805-6.7734-4.7031-8.4414-1.6719-19.098 6.7734-23.805l34.453-19.188-17.027-4.6094c-9.3281-2.5273-14.844-12.137-12.316-21.465 2.5234-9.332 12.133-14.848 21.465-12.32l51.492 13.941 70.375-40.988-70.371-40.988-51.496 13.941c-9.332 2.5273-18.941-2.9883-21.465-12.32-2.5273-9.3281 2.9883-18.938 12.316-21.465l17.926-4.8516-33.363-19.262c-8.3711-4.832-11.238-15.535-6.4062-23.906 4.832-8.3711 15.535-11.238 23.906-6.4062l33.359 19.262-4.8984-18.473c-2.4766-9.3438 3.0898-18.922 12.43-21.402 9.3438-2.4766 18.926 3.0898 21.402 12.43l13.836 52.168 70.094 40.828v-81.941l-37.805-38.195c-6.7969-6.8711-6.7422-17.949 0.12891-24.75 6.8672-6.7969 17.949-6.7422 24.746 0.12891l12.93 13.062v-39.109c0-9.6641 7.8359-17.5 17.5-17.5 9.6641 0 17.5 7.8359 17.5 17.5v39.109l12.93-13.062c6.7969-6.8711 17.875-6.9258 24.746-0.12891 6.8711 6.8008 6.9258 17.879 0.12891 24.75l-37.805 38.195v81.941l70.098-40.828 13.832-52.168c2.4766-9.3398 12.059-14.906 21.402-12.43 9.3398 2.4805 14.906 12.062 12.43 21.402l-4.832 18.215 33.41-19.488c8.3438-4.8672 19.062-2.0469 23.93 6.3008 4.8711 8.3477 2.0508 19.062-6.2969 23.934l-33.867 19.754 18.18 4.9258c9.3281 2.5234 14.844 12.133 12.32 21.461-2.5273 9.332-12.137 14.848-21.469 12.32l-51.492-13.941-70.375 40.988 70.375 40.988 51.492-13.941c9.332-2.5273 18.941 2.9883 21.469 12.32 2.5234 9.3281-2.9922 18.938-12.32 21.465l-17.301 4.6836 36.203 20.387c8.4219 4.7422 11.406 15.414 6.6641 23.832-4.7422 8.4219-15.414 11.406-23.836 6.6641l-37.316-21.012 5.0625 19.082c2.4766 9.3438-3.0898 18.922-12.43 21.402-9.3438 2.4766-18.926-3.0898-21.402-12.43l-13.832-52.168-70.098-40.828v79.465l37.805 38.195c6.7969 6.8711 6.7422 17.949-0.12891 24.75-6.8711 6.7969-17.949 6.7422-24.746-0.12891l-12.93-13.062v41.586c0 9.6641-7.8359 17.5-17.5 17.5z" fill-rule="evenodd"/>
</svg>
