<?xml version="1.0" encoding="UTF-8"?>
<svg width="700pt" height="700pt" version="1.1" viewBox="0 0 700 700" xmlns="http://www.w3.org/2000/svg">
 <path d="m369.55 100.48 42.941 93.438c5.043 9.75 7.5078 20.316 7.5078 31.414 0 39.289-31.461 73.043-71.348 72.148h-0.027344c-37.09-0.89453-67.785-32.508-68.621-70.449l-0.003906-0.38281c0-11.609 2.3984-22.566 6.5703-32.062l0.12109-0.26953 43.121-93.836c3.9297-9.2695 12.812-12.984 19.867-12.984 7.0625 0 15.941 3.7148 19.871 12.984zm-19.871 40.586-31.121 67.719c-2.1406 4.9258-3.5312 10.969-3.5586 17.668 0.53906 19.91 16.879 35.605 34.453 36.035 18.652 0.41016 35.547-15.875 35.547-37.156 0-5.8516-1.2773-10.934-3.707-15.547-0.14844-0.27734-0.28906-0.5625-0.42188-0.85156zm-102.63 134.41 42.941 93.438c5.043 9.75 7.5078 20.316 7.5078 31.414 0 39.289-31.461 73.043-71.348 72.148h-0.027344c-37.09-0.89453-67.789-32.508-68.621-70.449l-0.003906-0.38281c0-11.609 2.3984-22.566 6.5703-32.062l0.12109-0.26953 43.121-93.836c3.9297-9.2695 12.812-12.984 19.871-12.984 7.0547 0 15.938 3.7148 19.867 12.984zm-19.867 40.586-31.125 67.719c-2.1406 4.9258-3.5312 10.969-3.5586 17.668 0.53906 19.91 16.875 35.605 34.453 36.035 18.652 0.41016 35.547-15.875 35.547-37.156 0-5.8516-1.2773-10.934-3.707-15.547-0.14844-0.27734-0.28906-0.5625-0.42188-0.85156zm270.59-40.586 42.938 93.438c5.0508 9.75 7.5117 20.316 7.5117 31.414 0 39.289-31.461 73.043-71.348 72.148h-0.027344c-37.09-0.89453-67.789-32.508-68.621-70.449l-0.003907-0.38281c0-11.609 2.4023-22.566 6.5703-32.062l0.12109-0.26953 43.125-93.836c3.9258-9.2695 12.809-12.984 19.867-12.984s15.941 3.7148 19.867 12.984zm-19.867 40.586-31.121 67.719c-2.1445 4.9258-3.5352 10.969-3.5625 17.668 0.53906 19.91 16.879 35.605 34.457 36.035 18.652 0.41016 35.543-15.875 35.543-37.156 0-5.8516-1.2773-10.934-3.707-15.547-0.14844-0.27734-0.28906-0.5625-0.42188-0.85156z" fill-rule="evenodd"/>
</svg>
