<?xml version="1.0" encoding="UTF-8"?>
<svg width="700pt" height="700pt" version="1.1" viewBox="0 0 700 700" xmlns="http://www.w3.org/2000/svg">
 <path d="m525 280c0 9.6641-7.8359 17.5-17.5 17.5h-36.242c-2.9648 20.754-11.137 39.828-23.145 55.863l25.633 25.633c6.832 6.832 6.832 17.914 0 24.75-6.8359 6.832-17.918 6.832-24.75 0l-25.633-25.633c-16.035 12.008-35.109 20.18-55.863 23.145v36.242c0 9.6641-7.8359 17.5-17.5 17.5s-17.5-7.8359-17.5-17.5v-36.242c-20.754-2.9648-39.828-11.137-55.863-23.145l-25.629 25.633c-6.8359 6.832-17.918 6.832-24.75 0-6.8359-6.8359-6.8359-17.918 0-24.75l25.629-25.633c-12.008-16.035-20.176-35.109-23.145-55.863h-36.242c-9.6641 0-17.5-7.8359-17.5-17.5s7.8359-17.5 17.5-17.5h36.242c2.9688-20.754 11.137-39.828 23.145-55.863l-25.629-25.629c-6.8359-6.8359-6.8359-17.918 0-24.75 6.832-6.8359 17.914-6.8359 24.75 0l25.629 25.629c16.035-12.008 35.109-20.176 55.863-23.145v-36.242c0-9.6641 7.8359-17.5 17.5-17.5s17.5 7.8359 17.5 17.5v36.242c20.754 2.9688 39.828 11.137 55.863 23.145l25.633-25.629c6.832-6.8359 17.914-6.8359 24.75 0 6.832 6.832 6.832 17.914 0 24.75l-25.633 25.629c12.008 16.035 20.18 35.109 23.145 55.863h36.242c9.6641 0 17.5 7.8359 17.5 17.5zm-236.86-61.883c-15.84 15.836-25.637 37.715-25.637 61.883 0 48.324 39.176 87.5 87.5 87.5s87.5-39.176 87.5-87.5-39.176-87.5-87.5-87.5c-24.156 0-46.027 9.7891-61.863 25.617z" fill-rule="evenodd"/>
</svg>
