<?xml version="1.0" encoding="UTF-8"?>
<svg width="700pt" height="700pt" version="1.1" fill="grey" viewBox="0 0 700 700" xmlns="http://www.w3.org/2000/svg">
 <g>
  <path d="m350 332.5c-9.6641 0-17.5-7.8359-17.5-17.5v-105c0-9.6641 7.8359-17.5 17.5-17.5s17.5 7.8359 17.5 17.5v105c0 9.6641-7.8359 17.5-17.5 17.5z" fill-rule="evenodd"/>
  <path d="m332.5 367.5c0-9.6641 7.8359-17.5 17.5-17.5s17.5 7.8359 17.5 17.5-7.8359 17.5-17.5 17.5-17.5-7.8359-17.5-17.5z"/>
  <path d="m350 122.5c86.984 0 157.5 70.516 157.5 157.5s-70.516 157.5-157.5 157.5h-157.5v-157.5c0-86.984 70.516-157.5 157.5-157.5zm192.5 157.5c0-106.32-86.188-192.5-192.5-192.5-106.32 0-192.5 86.184-192.5 192.5v175c0 9.6641 7.8359 17.5 17.5 17.5h175c106.31 0 192.5-86.188 192.5-192.5z" fill-rule="evenodd"/>
 </g>
</svg>
