<?xml version="1.0" encoding="UTF-8"?>
<svg width="700pt" height="700pt" version="1.1" viewBox="0 0 700 700" xmlns="http://www.w3.org/2000/svg">
 <path d="m353.8 116.23c14.09 47.289 8.2109 100.25-20.684 144.99-28.891 44.738-74.746 71.887-123.65 78.5 9.1094 11.27 20.141 21.309 33 29.613 64.953 41.949 151.61 23.297 193.55-41.656 41.949-64.953 23.297-151.61-41.656-193.56-12.859-8.3047-26.547-14.227-40.566-17.891zm-26.668-39.309c29.723 1.457 59.469 10.52 86.223 27.797 81.191 52.434 104.5 160.76 52.07 241.95-52.43 81.191-160.75 104.5-241.95 52.07-26.754-17.277-47.254-40.66-60.809-67.152-2.8477-5.5586-2.5117-12.215 0.87891-17.465 3.3867-5.2461 9.3164-8.2891 15.555-7.9844 48.34 2.3711 96.512-20.387 124.61-63.902 28.102-43.512 29.027-96.781 6.9805-139.86-2.8438-5.5625-2.5078-12.219 0.87891-17.465 3.3906-5.25 9.3203-8.293 15.559-7.9844z" fill-rule="evenodd"/>
</svg>
