<?xml version="1.0" encoding="UTF-8"?>
<svg width="700pt" height="700pt" version="1.1" viewBox="0 0 700 700" xmlns="http://www.w3.org/2000/svg">
 <path d="m197.98 148.01c3.3867-5.25 9.3164-8.293 15.555-7.9883 16.117 0.79297 32.246 5.7109 46.73 15.066 18.824 12.156 31.898 29.859 38.484 49.562 15.805-8.6211 33.785-13.535 52.902-13.535 45.449 0 84.055 27.551 103.02 66.758 7.793-2.4414 16.051-3.7578 24.602-3.7578 48.707 0 86.219 41.871 86.219 91 0 40.184-24.855 75.145-60.508 86.883-0.29297 0.097656-0.58984 0.1875-0.89062 0.26562l-11.953 3.2422c-1.4922 0.40234-3.0312 0.60938-4.5781 0.60938h-283.17c-43.285 0-76.402-37.168-76.402-80.5 0-19.062 6.3125-36.754 17.031-50.684-8.5938-7.7969-15.508-16.949-20.605-26.914-2.8477-5.5625-2.5117-12.219 0.87891-17.469 3.3867-5.2461 9.3164-8.2891 15.555-7.9844 20.688 1.0156 41.262-8.7227 53.266-27.309 12-18.586 12.414-41.344 2.9805-59.781-2.8477-5.5625-2.5117-12.219 0.87891-17.465zm-10.801 129.16c5.5273-1.3398 11.293-2.0547 17.219-2.0547 12.648 0 24.543 3.2422 34.984 8.9141 4.9453-21.117 15.074-40.141 28.957-55.406-1.8047-17.453-11.219-33.902-27.059-44.133-1.0352-0.67188-2.0859-1.3008-3.1406-1.8984 2.2695 20.863-2.332 42.629-14.617 61.652-9.3672 14.5-22.02 25.59-36.344 32.926zm164.47-51.055c-20.324 0-39.023 8.1523-53.383 21.914-13.594 13.031-23.211 31.043-26.258 51.566-0.67578 4.5547-1.0273 9.2344-1.0273 14.02 0 2.1562 0.070313 4.293 0.21094 6.4062 0.53516 8.0391-4.4844 15.402-12.16 17.844-7.6797 2.4375-16.031-0.67969-20.23-7.5508-2.6758-4.3789-6.0039-8.1797-9.7812-11.266-6.9805-5.6914-15.492-8.9336-24.625-8.9336-8.1094 0-15.703 2.5508-22.176 7.082-11.328 7.9297-19.227 21.969-19.227 38.418 0 26.258 19.625 45.5 41.402 45.5h280.84l9.2148-2.5c20.301-6.8867 36.043-27.742 36.043-53.5 0-32.055-24.023-56-51.219-56-9.0664 0-17.582 2.5625-25.02 7.1328-4.625 2.8398-10.305 3.375-15.379 1.4453-5.0742-1.9297-8.9688-6.1055-10.535-11.301-10.766-35.676-41.59-60.277-76.691-60.277z" fill-rule="evenodd"/>
</svg>
