<?xml version="1.0" encoding="UTF-8"?>
<svg width="700pt" height="700pt" version="1.1" viewBox="0 0 700 700" xmlns="http://www.w3.org/2000/svg">
 <g fill-rule="evenodd">
  <path d="m356.5 281.25c8.9727 3.5938 13.34 13.777 9.75 22.75l-16.406 41.016c-3.5898 8.9727-13.777 13.34-22.75 9.7461-8.9727-3.5859-13.34-13.77-9.75-22.746l16.406-41.016c3.5898-8.9727 13.777-13.34 22.75-9.75zm105 0c8.9727 3.5938 13.34 13.777 9.75 22.75l-16.406 41.016c-3.5898 8.9727-13.777 13.34-22.75 9.7461-8.9727-3.5859-13.34-13.77-9.75-22.746l16.406-41.016c3.5898-8.9727 13.777-13.34 22.75-9.75zm-71.094 46.488c8.9727 3.5859 13.34 13.773 9.75 22.746l-16.406 41.016c-3.5898 8.9727-13.777 13.34-22.75 9.75s-13.34-13.777-9.75-22.75l16.406-41.016c3.5898-8.9727 13.777-13.336 22.75-9.7461zm-70 43.75c8.9727 3.5859 13.34 13.773 9.75 22.746l-16.406 41.016c-3.5898 8.9727-13.777 13.34-22.75 9.75s-13.34-13.777-9.75-22.75l16.406-41.016c3.5898-8.9727 13.777-13.336 22.75-9.7461zm105 0c8.9727 3.5859 13.34 13.773 9.75 22.746l-16.406 41.016c-3.5898 8.9727-13.777 13.34-22.75 9.75s-13.34-13.777-9.75-22.75l16.406-41.016c3.5898-8.9727 13.777-13.336 22.75-9.7461zm-71.094 46.48c8.9727 3.5938 13.34 13.777 9.75 22.75l-16.406 41.016c-3.5898 8.9727-13.777 13.34-22.75 9.7461-8.9727-3.5859-13.34-13.77-9.75-22.746l16.406-41.016c3.5898-8.9727 13.777-13.34 22.75-9.75z"/>
  <path d="m197.98 78.008c3.3867-5.25 9.3164-8.293 15.555-7.9883 16.117 0.79297 32.246 5.7109 46.73 15.066 18.555 11.98 32.91 29.48 40.172 49.582 15.516-8.2539 33.102-12.93 51.879-12.93 45.449 0 84.055 27.547 103.02 66.758 7.7891-2.4414 16.051-3.7578 24.598-3.7578 48.711 0 86.223 41.871 86.223 91 0 39.871-24.465 74.59-59.664 86.598-9.1484 3.1211-19.094-1.7656-22.215-10.91-3.1172-9.1484 1.7656-19.094 10.914-22.215 20.262-6.9102 35.965-27.754 35.965-53.473 0-32.055-24.023-56-51.223-56-9.0625 0-17.578 2.5625-25.016 7.1289-4.625 2.8438-10.305 3.375-15.383 1.4492-5.0703-1.9297-8.9648-6.1055-10.531-11.301-10.766-35.68-41.59-60.277-76.691-60.277-19.789 0-38.281 7.8867-52.559 21.148-11.512 11.211-20.641 25.926-25.004 42.113-0.67578 2.5703-1.25 5.1953-1.7109 7.8633-0.082031 0.48047-0.15625 0.96094-0.22656 1.4414-0.035156 0.23047-0.074218 0.46484-0.12109 0.69141-0.6875 4.6211-1.0469 9.375-1.0469 14.242 0 2.1562 0.070312 4.293 0.21094 6.4062 0.53516 8.0391-4.4844 15.402-12.164 17.844-7.6758 2.4375-16.027-0.67969-20.227-7.5547-7.668-12.539-20.457-20.195-34.406-20.195-6.8359 0-13.754 2.0469-19.77 5.5664-12.605 7.5391-21.633 22.121-21.633 39.934 0 26.254 19.625 45.5 41.402 45.5h63.598c9.6641 0 17.5 7.832 17.5 17.5 0 9.6641-7.8359 17.5-17.5 17.5h-63.598c-43.285 0-76.402-37.168-76.402-80.5 0-18.938 6.3242-36.695 17.055-50.691-8.9141-7.9258-16.059-17.301-21.293-27.531-2.8477-5.5625-2.5117-12.219 0.87891-17.469 3.3867-5.2461 9.3164-8.2891 15.555-7.9844 20.688 1.0156 41.262-8.7227 53.266-27.309 12-18.586 12.414-41.344 2.9805-59.781-2.8477-5.5625-2.5117-12.219 0.87891-17.465zm72.281 79.875c-11.207 11.984-20.07 26.375-25.875 42.297-1.7188 4.625-3.1719 9.3906-4.3242 14.266-10.539-5.7656-22.312-8.707-35-8.707-7.5352 0-14.762 1.125-21.559 3.2148 15.832-7.2656 29.859-18.98 40.02-34.711 12.285-19.023 16.887-40.789 14.617-61.652 1.0547 0.59766 2.1055 1.2266 3.1406 1.8945 16.52 10.672 26.848 26.852 28.98 43.398zm-96.918 55.047c0.003906 0 0 0 0 0z"/>
 </g>
</svg>
