<?xml version="1.0" encoding="UTF-8"?>
<svg width="700pt" height="700pt" version="1.1" viewBox="0 0 700 700" xmlns="http://www.w3.org/2000/svg">
 <g fill-rule="evenodd">
  <path d="m251.41 197.92c12.398-52.738 57.199-92.922 112.25-92.922 45.449 0 84.055 27.551 103.02 66.762 7.7891-2.4453 16.051-3.7617 24.602-3.7617 48.707 0 86.219 41.867 86.219 91 0 39.871-24.465 74.59-59.664 86.598-9.1445 3.125-19.09-1.7617-22.215-10.91-3.1172-9.1484 1.7656-19.094 10.914-22.211 20.262-6.9141 35.965-27.754 35.965-53.477 0-32.055-24.023-56-51.219-56-9.0625 0-17.582 2.5625-25.02 7.1328-4.625 2.8398-10.305 3.375-15.379 1.4453-5.0742-1.9297-8.9648-6.1055-10.535-11.305-10.762-35.672-41.586-60.273-76.688-60.273-43.465 0-80.672 38.047-80.672 87.5 0 2.1562 0.070313 4.293 0.21094 6.4062 0.53516 8.0391-4.4844 15.402-12.16 17.844-7.6797 2.4375-16.027-0.67969-20.23-7.5508-7.668-12.543-20.457-20.199-34.406-20.199-21.777 0-41.402 19.242-41.402 45.5s19.625 45.5 41.402 45.5h11.098c9.6641 0 17.5 7.8359 17.5 17.5s-7.8359 17.5-17.5 17.5h-11.098c-43.285 0-76.402-37.168-76.402-80.5s33.117-80.5 76.402-80.5c12.699 0 24.582 3.25 35.004 8.9219z"/>
  <path d="m323.75 455c-9.6641 0-17.5-7.8359-17.5-17.5v-20.875l-17.18 10.414c-8.2617 5.0078-19.023 2.3711-24.035-5.8945-5.0078-8.2617-2.3711-19.023 5.8945-24.035l19.066-11.559-19.066-11.562c-8.2656-5.0078-10.902-15.773-5.8945-24.035 5.0117-8.2656 15.773-10.902 24.035-5.8945l17.18 10.418v-21.977c0-9.6641 7.8359-17.5 17.5-17.5s17.5 7.8359 17.5 17.5v21.977l17.18-10.418c8.2617-5.0078 19.023-2.3711 24.035 5.8945 5.0078 8.2617 2.3711 19.027-5.8945 24.035l-19.066 11.562 19.066 11.559c8.2656 5.0117 10.902 15.773 5.8945 24.035-5.0117 8.2656-15.773 10.902-24.035 5.8945l-17.18-10.414v20.875c0 9.6641-7.8359 17.5-17.5 17.5z"/>
  <path d="m420 350c-9.6641 0-17.5-7.8359-17.5-17.5v-11.543l-8.1562 5.1484c-8.1719 5.1641-18.98 2.7227-24.141-5.4492s-2.7188-18.98 5.4531-24.141l11.57-7.3086-11.57-7.3047c-8.1719-5.1641-10.613-15.969-5.4531-24.145 5.1602-8.1719 15.969-10.609 24.141-5.4492l8.1562 5.1484v-12.457c0-9.6641 7.8359-17.5 17.5-17.5s17.5 7.8359 17.5 17.5v12.457l8.1562-5.1484c8.1719-5.1602 18.98-2.7188 24.141 5.4492 5.1602 8.1758 2.7188 18.98-5.4531 24.145l-11.57 7.3047 11.57 7.3086c8.1719 5.1602 10.613 15.969 5.4531 24.141s-15.969 10.613-24.141 5.4492l-8.1562-5.1484v11.543c0 9.6641-7.8359 17.5-17.5 17.5z"/>
 </g>
</svg>
