<?xml version="1.0" encoding="UTF-8"?>
<svg width="700pt" fill="grey" height="700pt" version="1.1" viewBox="0 0 700 700" xmlns="http://www.w3.org/2000/svg">
 <path d="m350 58.625c6.2812 0 11.375 5.0938 11.375 11.375v70c0 6.2852-5.0938 11.375-11.375 11.375s-11.375-5.0898-11.375-11.375v-70c0-6.2812 5.0938-11.375 11.375-11.375zm156.54 64.84c4.4414 4.4414 4.4414 11.645 0 16.086l-49.5 49.5c-4.4414 4.4414-11.641 4.4414-16.086 0-4.4414-4.4414-4.4414-11.645 0-16.086l49.5-49.5c4.4414-4.4414 11.645-4.4414 16.086 0zm-313.07 0c4.4414-4.4414 11.645-4.4414 16.086 0l49.496 49.5c4.4453 4.4414 4.4453 11.645 0 16.086-4.4414 4.4414-11.645 4.4414-16.086 0l-49.496-49.5c-4.4414-4.4414-4.4414-11.645 0-16.086zm-64.84 156.54c0-6.2812 5.0938-11.375 11.375-11.375h70c6.2812 0 11.375 5.0938 11.375 11.375 0 6.2852-5.0938 11.375-11.375 11.375h-70c-6.2812 0-11.375-5.0898-11.375-11.375zm350 0c0-6.2812 5.0938-11.375 11.375-11.375h70c6.2812 0 11.375 5.0938 11.375 11.375 0 6.2852-5.0938 11.375-11.375 11.375h-70c-6.2812 0-11.375-5.0898-11.375-11.375zm-219.58 90.953c4.4453 4.4414 4.4453 11.645 0 16.086l-49.496 49.5c-4.4414 4.4414-11.645 4.4414-16.086 0-4.4414-4.4414-4.4414-11.645 0-16.086l49.496-49.5c4.4414-4.4414 11.645-4.4414 16.086 0zm181.9 0c4.4453-4.4414 11.645-4.4414 16.086 0l49.5 49.5c4.4414 4.4414 4.4414 11.645 0 16.086-4.4414 4.4414-11.645 4.4414-16.086 0l-49.5-49.5c-4.4414-4.4414-4.4414-11.645 0-16.086zm-90.949 37.672c6.2812 0 11.375 5.0938 11.375 11.375v70c0 6.2852-5.0938 11.375-11.375 11.375s-11.375-5.0898-11.375-11.375v-70c0-6.2812 5.0938-11.375 11.375-11.375z" fill-rule="evenodd"/>
</svg>
