<?xml version="1.0" encoding="UTF-8"?>
<svg width="700pt" height="700pt" version="1.1" fill="#313232" viewBox="0 0 700 700" xmlns="http://www.w3.org/2000/svg">
 <g fill-rule="evenodd">
  <path d="m357 245c-25.129 0-45.5 20.371-45.5 45.5 0 12.57 5.0742 23.922 13.328 32.172 8.25 8.2539 19.602 13.328 32.172 13.328 25.129 0 45.5-20.371 45.5-45.5s-20.371-45.5-45.5-45.5zm-80.5 45.5c0-44.457 36.043-80.5 80.5-80.5s80.5 36.043 80.5 80.5-36.043 80.5-80.5 80.5c-15.887 0-30.715-4.6133-43.191-12.559l-38.934 38.934c-6.8359 6.832-17.914 6.832-24.75 0-6.832-6.8359-6.832-17.914 0-24.75l38.934-38.934c-7.9453-12.477-12.559-27.305-12.559-43.191z"/>
  <path d="m329 63.875c12.445-9.332 29.555-9.332 42 0l146.84 110.13c0.10156 0.074219 0.20312 0.14844 0.30469 0.22656l52.359 39.27c7.7305 5.8008 9.3008 16.77 3.5 24.5s-16.77 9.3008-24.5 3.5l-24.5-18.375v231.88c0 19.332-15.668 35-35 35h-280c-19.328 0-35-15.668-35-35v-231.88l-24.5 18.375c-7.7305 5.8008-18.699 4.2305-24.5-3.5s-4.2305-18.699 3.5-24.5l52.359-39.27c0.10156-0.078125 0.20312-0.15234 0.30469-0.22656zm-119 133v258.12h280v-258.12l-140-105z"/>
 </g>
</svg>
