<?xml version="1.0" encoding="UTF-8"?>
<svg width="700pt" fill="grey" height="700pt" version="1.1" viewBox="0 0 700 700" xmlns="http://www.w3.org/2000/svg">
 <g fill-rule="evenodd">
  <path d="m397.17 74.035c-2.6211-2.5859-6.1523-4.0352-9.8359-4.0352h-159.6c-17.352 0-31.734 13.93-31.734 31.5v329c0 17.57 14.383 31.5 31.734 31.5h230.53c17.352 0 31.734-13.93 31.734-31.5v-259c0-3.7461-1.5-7.3359-4.168-9.9648zm4.1641 43.449v36.516c0 1.7578 1.4961 3.5 3.7344 3.5h36.816zm60.668 68.016h-56.934c-17.352 0-31.734-13.93-31.734-31.5v-56h-145.6c-2.2383 0-3.7344 1.7422-3.7344 3.5v329c0 1.7578 1.4961 3.5 3.7344 3.5h230.53c2.2383 0 3.7344-1.7422 3.7344-3.5z"/>
  <path d="m313.06 224c0-7.7305 6.2656-14 14-14h31.883c7.7344 0 14 6.2695 14 14v7.2109c6.1836 2.5078 11.965 5.7695 17.219 9.6719l7.0781-3.9453c6.6094-3.6875 14.953-1.4531 18.836 5.043l15.945 26.676c1.9414 3.2461 2.4844 7.1445 1.5039 10.801-0.98047 3.6562-3.3984 6.7617-6.7031 8.6055l-6.6289 3.6992c0.37891 3.0312 0.57422 6.1133 0.57422 9.2383s-0.19531 6.207-0.57422 9.2383l6.6289 3.6992c3.3047 1.8438 5.7227 4.9492 6.7031 8.6055 0.98047 3.6562 0.4375 7.5547-1.5039 10.801l-15.945 26.676c-3.8828 6.4961-12.227 8.7305-18.836 5.043l-7.0781-3.9453c-5.2539 3.9023-11.035 7.1641-17.219 9.6719v7.2109c0 7.7305-6.2656 14-14 14h-31.883c-7.7344 0-14-6.2695-14-14v-7.2109c-6.1797-2.5078-11.965-5.7695-17.219-9.6719l-7.0781 3.9453c-6.6094 3.6875-14.953 1.4531-18.836-5.043l-15.945-26.676c-1.9414-3.2461-2.4844-7.1445-1.5039-10.801 0.98047-3.6562 3.3984-6.7617 6.7031-8.6055l6.6289-3.6992c-0.37891-3.0312-0.57422-6.1133-0.57422-9.2383s0.19531-6.207 0.57422-9.2383l-6.6289-3.6992c-3.3047-1.8438-5.7227-4.9492-6.7031-8.6055-0.98047-3.6562-0.4375-7.5547 1.5039-10.801l15.945-26.676c3.8828-6.4961 12.227-8.7305 18.836-5.043l7.0781 3.9453c5.2539-3.9023 11.039-7.1641 17.219-9.6719zm28 14v3.3398c0 6.4336-4.3828 12.035-10.621 13.586-8.9453 2.2266-16.891 6.7695-23.121 12.895-4.4297 4.3594-11.207 5.2773-16.633 2.25l-3.6953-2.0625-1.5703 2.6289 2.9453 1.6445c5.6836 3.168 8.4336 9.8359 6.6406 16.086-1.1523 4.0117-1.7695 8.2422-1.7695 12.633s0.61719 8.6211 1.7695 12.633c1.793 6.25-0.95703 12.918-6.6406 16.086l-2.9453 1.6445 1.5703 2.6289 3.6953-2.0625c5.4258-3.0273 12.203-2.1094 16.633 2.25 6.2305 6.125 14.176 10.668 23.121 12.895 6.2383 1.5508 10.621 7.1523 10.621 13.586v3.3398h3.8828v-3.3398c0-6.4336 4.3828-12.035 10.621-13.586 8.9453-2.2266 16.891-6.7695 23.121-12.895 4.4297-4.3594 11.207-5.2773 16.633-2.25l3.6953 2.0625 1.5703-2.6289-2.9453-1.6445c-5.6836-3.168-8.4336-9.8359-6.6406-16.086 1.1523-4.0117 1.7695-8.2422 1.7695-12.633s-0.61719-8.6211-1.7695-12.633c-1.793-6.25 0.95703-12.918 6.6406-16.086l2.9453-1.6445-1.5703-2.6289-3.6953 2.0625c-5.4258 3.0273-12.203 2.1094-16.633-2.25-6.2305-6.125-14.176-10.668-23.121-12.895-6.2383-1.5508-10.621-7.1523-10.621-13.586v-3.3398zm1.9414 56c-4.1094 0-7 2.9453-7 7 0 3.8594 3.1406 7 7 7 3.957 0 7-3.0156 7-7 0-4.1758-2.7969-7-7-7zm-35 7c0-19.133 15.047-35 35-35 19.859 0 35 15.551 35 35 0 19.641-15.77 35-35 35-19.324 0-35-15.676-35-35z"/>
 </g>
</svg>
