<?xml version="1.0" encoding="UTF-8"?>
<svg width="700pt" fill="grey" height="700pt" version="1.1" viewBox="0 0 700 700" xmlns="http://www.w3.org/2000/svg">
 <path d="m350 105c-58.523 0-105 45.797-105 101.11 0 36.57 9.9961 55.586 20.238 71.684 10.316 16.227 25.699 35.055 25.699 65.395 0 18.066 2.3438 26.91 3.9219 30.754h37.859c-0.14453-0.89844-0.21875-1.8203-0.21875-2.7617v-94.027l-25.453-25.262c-6.8594-6.8086-6.9023-17.887-0.09375-24.746 6.8086-6.8633 17.891-6.9023 24.75-0.097657l18.297 18.16 18.297-18.16c6.8594-6.8047 17.941-6.7656 24.75 0.097657 6.8086 6.8594 6.7656 17.938-0.09375 24.746l-25.453 25.262v94.027c0 0.94141-0.074219 1.8633-0.21875 2.7617h37.859c1.5781-3.8438 3.9219-12.688 3.9219-30.754 0-30.34 15.383-49.168 25.699-65.395 10.242-16.098 20.238-35.113 20.238-71.684 0-55.316-46.477-101.11-105-101.11zm38.797 303.95h-77.594l8.2695 32.828c1.9609 7.7773 8.9531 13.227 16.973 13.227h27.109c8.0195 0 15.012-5.4492 16.973-13.227zm-115.15-5.8125c-2.6719-2.168-5.1562-4.957-7.3438-8.4102-6.4297-10.164-10.367-26.168-10.367-51.531 0-17.777-7.5859-26.715-20.234-46.613-12.734-20.023-25.703-45.488-25.703-90.465 0-75.699 63.219-136.11 140-136.11s140 60.414 140 136.11c0 44.977-12.973 70.441-25.699 90.465-12.652 19.898-20.238 28.836-20.238 46.613 0 25.363-3.9375 41.367-10.367 51.531-2.1875 3.4531-4.6719 6.2422-7.3438 8.4102l-11.887 47.191c-5.875 23.328-26.852 39.676-50.91 39.676h-27.109c-24.059 0-45.035-16.348-50.91-39.676z" fill-rule="evenodd"/>
</svg>
