<?xml version="1.0" encoding="UTF-8"?>
<svg width="700pt" fill="grey" height="700pt" version="1.1" viewBox="0 0 700 700" xmlns="http://www.w3.org/2000/svg">
 <path d="m245 366.54c-78.75-8.707-140-75.469-140-156.54 0-86.984 70.516-157.5 157.5-157.5 65.102 0 120.94 39.484 144.95 95.789 14.859-5.3672 30.879-8.2891 47.555-8.2891 77.32 0 140 62.68 140 140 0 71.395-53.441 130.3-122.5 138.92v53.582h70c9.6641 0 17.5 7.8359 17.5 17.5s-7.8359 17.5-17.5 17.5h-385c-9.6641 0-17.5-7.8359-17.5-17.5s7.8359-17.5 17.5-17.5h87.5zm-105-156.54c0-67.656 54.844-122.5 122.5-122.5 51.473 0 95.566 31.758 113.69 76.777-36.91 25.188-61.188 67.609-61.188 115.72 0 13.176 1.8242 25.949 5.2422 38.066-12.305 6.5938-25.863 11.141-40.242 13.195v-90.098l13.934-3.4844c15.137-3.7852 21.59-15.844 27.969-28.605 4.3203-8.6445 0.82031-19.152-7.8281-23.477-8.6445-4.3203-19.152-0.82031-23.477 7.8281l-5.1484 10.297-5.4492 1.3633v-30.086c0-9.6641-7.8359-17.5-17.5-17.5s-17.5 7.8359-17.5 17.5v78.195c-5.1211-2.6367-7.9062-7.2695-9.3281-12.66-2.4688-9.3477-12.043-14.922-21.387-12.457-9.3438 2.4688-14.922 12.043-12.457 21.387 5.4492 20.645 21.719 36.758 43.172 40.059v41.734c-59.363-8.4883-105-59.543-105-121.26zm140 156.54v105.96h157.5v-53.582c-44.254-5.5195-82.07-31.688-103.54-68.531-16.52 8.4258-34.727 14.02-53.961 16.152zm192.5 17.008v-51.617c20.867-3.0977 36.332-18.09 42.852-37.645 3.0586-9.168-1.8984-19.082-11.066-22.137-9.168-3.0547-19.082 1.8984-22.137 11.066-1.7656 5.3008-4.4023 9.9062-9.6484 12.488v-15.703c0-9.6641-7.8359-17.5-17.5-17.5s-17.5 7.8359-17.5 17.5v46.57c-6-3.957-7.5156-10.711-9.6484-17.105-3.0547-9.168-12.969-14.121-22.137-11.066-9.168 3.0547-14.121 12.969-11.066 22.137 7.1797 21.543 20.371 37.508 42.852 43.129v19.883c-36.418-6.1094-66.508-30.969-79.949-64.359-4.8633-12.086-7.5508-25.301-7.5508-39.188 0-40.07 22.441-74.93 55.523-92.641 14.723-7.8828 31.551-12.359 49.477-12.359 57.988 0 105 47.012 105 105 0 52.027-37.84 95.215-87.5 103.55z" fill-rule="evenodd"/>
</svg>
