<?xml version="1.0" encoding="UTF-8"?>
<svg width="700pt" fill="grey" height="700pt" version="1.1" viewBox="0 0 700 700" xmlns="http://www.w3.org/2000/svg">
 <path d="m214.09 57.816c6.7305-6.9375 17.809-7.1094 24.746-0.37891l28.043 27.195c3.3984 3.293 5.3164 7.8281 5.3164 12.562 0 4.7344-1.918 9.2656-5.3164 12.562l-28.043 27.195c-6.9375 6.7266-18.016 6.5547-24.746-0.38281-5.8398-6.0234-6.4805-15.168-2.0078-21.875h-9.8828c-9.668 0-17.5 7.832-17.5 17.5v9.8789c6.707-4.4688 15.852-3.8281 21.875 2.0117 6.9375 6.7305 7.1094 17.809 0.38281 24.746l-27.195 28.043c-3.2969 3.3984-7.8281 5.3164-12.562 5.3164-4.7344 0-9.2695-1.918-12.562-5.3164l-27.195-28.043c-6.7305-6.9375-6.5586-18.016 0.37891-24.746 6.0234-5.8398 15.168-6.4805 21.879-2.0117v-9.8789c0-28.996 23.504-52.5 52.5-52.5h9.8828c-4.4727-6.7109-3.832-15.855 2.0078-21.879zm83.414 99.684c0-19.328 15.668-35 35-35h227.5c19.332 0 35 15.672 35 35v227.5c0 19.332-15.668 35-35 35h-70v70c0 19.332-15.668 35-35 35h-227.5c-19.328 0-35-15.668-35-35v-227.5c0-19.332 15.672-35 35-35h70zm17.531 105h-0.03125-0.03125-87.469v227.5h227.5v-87.43-0.070312-0.070312-139.93zm174.97 122.5v-122.5c0-19.332-15.668-35-35-35h-122.5v-70h227.5v227.5z" fill-rule="evenodd"/>
</svg>
